<?xml version="1.0" encoding="UTF-8" standalone="no"?>
<svg
   width="120mm"
   height="120mm"
   viewBox="0 0 120 120"
   id="svg4149"
   version="1.1"
   inkscape:version="1.3.2 (091e20ef0f, 2023-11-25)"
   sodipodi:docname="drawing.svg"
   xml:space="preserve"
   xmlns:inkscape="http://www.inkscape.org/namespaces/inkscape"
   xmlns:sodipodi="http://sodipodi.sourceforge.net/DTD/sodipodi-0.dtd"
   xmlns="http://www.w3.org/2000/svg"
   xmlns:svg="http://www.w3.org/2000/svg"
   xmlns:rdf="http://www.w3.org/1999/02/22-rdf-syntax-ns#"
   xmlns:cc="http://creativecommons.org/ns#"
   xmlns:dc="http://purl.org/dc/elements/1.1/"><defs
     id="defs4151" /><sodipodi:namedview
     id="base"
     pagecolor="#ffffff"
     bordercolor="#666666"
     borderopacity="1.0"
     inkscape:pageopacity="0.0"
     inkscape:pageshadow="2"
     inkscape:zoom="1.9999999"
     inkscape:cx="201.75001"
     inkscape:cy="317.75001"
     inkscape:document-units="mm"
     inkscape:current-layer="layer1"
     showgrid="true"
     inkscape:showpageshadow="false"
     showguides="true"
     inkscape:guide-bbox="true"
     inkscape:document-rotation="0"
     inkscape:pagecheckerboard="0"
     inkscape:deskcolor="#d1d1d1"
     inkscape:window-width="1870"
     inkscape:window-height="1016"
     inkscape:window-x="1032"
     inkscape:window-y="8"
     inkscape:window-maximized="0"><sodipodi:guide
       position="0,77.35"
       orientation="0,1"
       id="guide154"
       inkscape:label="Rotary Stop 0°"
       inkscape:locked="false"
       inkscape:color="rgb(0,0,255)" /><sodipodi:guide
       position="0,68.8"
       orientation="0,1"
       id="guide40738"
       inkscape:label="Rotary Stop 20°"
       inkscape:locked="false"
       inkscape:color="rgb(0,0,255)" /><inkscape:grid
       id="grid10"
       units="mm"
       originx="0"
       originy="0"
       spacingx="5"
       spacingy="5"
       empcolor="#0099e5"
       empopacity="0.30196078"
       color="#0099e5"
       opacity="0.14901961"
       empspacing="5"
       dotted="false"
       gridanglex="30"
       gridanglez="30"
       visible="true" /></sodipodi:namedview><metadata
     id="metadata517"><rdf:RDF><cc:Work
         rdf:about=""><dc:format>image/svg+xml</dc:format><dc:type
           rdf:resource="http://purl.org/dc/dcmitype/StillImage" /></cc:Work></rdf:RDF></metadata><defs
     id="defs92" /><sodipodi:namedview
     id="namedview94"
     pagecolor="#ffffff"
     bordercolor="#666666"
     borderopacity="1.0"
     inkscape:pageopacity="0.0"
     inkscape:pageshadow="2"
     inkscape:zoom="1.0"
     inkscape:cx="212.59843"
     inkscape:cy="212.59843"
     inkscape:document-units="mm"
     inkscape:current-layer="layer1"
     showgrid="false"
     inkscape:showpageshadow="false"
     showguides="true"
     inkscape:guide-bbox="true"
     inkscape:snap-global="false"
     inkscape:document-rotation="0" /><g
     inkscape:label="Layer 1"
     inkscape:groupmode="layer"
     id="layer1"><text
       x="55.648682"
       y="91.23748"
       style="font-size:1px;font-family:'Droid Sans';word-spacing:0px"
       id="DataLabel"
       inkscape:label="laserdata">{ &quot;height&quot;: &quot;119.0&quot; }</text><text
       x="51.813721"
       y="94.489433"
       style="font-size:1px;font-family:'Droid Sans';word-spacing:0px"
       id="text182"
       inkscape:label="laserdata">{ &quot;customer&quot;: &quot;*&quot; }</text><text
       x="53.835205"
       y="92.903259"
       style="font-size:1px;font-family:'Droid Sans';word-spacing:0px"
       id="text536"
       inkscape:label="laserdata">{ &quot;filename&quot;: &quot;&lt;filename&gt;&quot; }</text><path
       id="box2-0"
       style="stroke-width:0.555556"
       d="M 81.111043,74.999788 V 75.55531 H 80.555521 80 v 0.555522 h 0.555521 v 0.555521 H 80 v 0.555522 0.556038 0.555522 h 0.555521 v 0.555522 H 80 v 0.555521 h 0.555521 0.555522 V 80 h 0.555521 v -0.555522 h 0.555522 V 80 h 0.555522 0.555521 v -0.555522 h 0.555522 V 80 h 0.555522 0.555521 v -0.555522 -0.555521 -0.555522 h -0.555521 v -0.555522 h 0.555521 v -0.556038 h -0.555521 v -0.555522 h 0.555521 V 76.110832 75.55531 74.999788 h -0.555521 -0.555522 v 0.555522 h -0.555522 -0.555521 -0.555522 -0.555522 v -0.555522 z m 0,1.111044 h 0.555521 0.555522 0.555522 0.555521 0.555522 v 0.555521 0.555522 0.556038 0.555522 0.555522 h -0.555522 -0.555521 -0.555522 -0.555522 -0.555521 v -0.555522 -0.555522 -0.556038 -0.555522 z m 0.555521,1.111043 v 0.556038 0.555522 h 0.555522 v -0.555522 h 0.555522 v -0.556038 h -0.555522 z m 1.111044,0.556038 v 0.555522 h 0.555521 v -0.555522 z" /><path
       id="box2-0-7"
       style="stroke-width:0.555556"
       d="m 91.111042,75 v 0.555521 h -0.555521 -0.555522 v 0.555522 h 0.555522 v 0.555522 h -0.555522 v 0.555521 h 0.555522 v 0.555522 0.555522 h -0.555522 v 0.555521 h 0.555522 v 0.555522 h 0.555521 v 0.555522 h 0.555522 v -0.555522 h 0.555522 0.555521 0.555522 v 0.555522 h 0.555522 0.555521 v -0.555522 -0.555522 h 0.555522 V 78.33313 77.777608 h -0.555522 v -0.555522 h 0.555522 V 76.666565 76.111043 75.555521 H 94.444172 V 75 h -0.555521 v 0.555521 H 93.333129 92.777607 92.222086 91.666564 V 75 Z m -0.555521,4.444173 h -0.555522 v 0.555522 h 0.555522 z m 0.555521,-3.33313 h 0.555522 0.555522 0.555521 0.555522 0.555522 v 0.555522 0.555521 0.555522 0.555522 0.555521 H 93.333129 92.777607 92.222086 91.666564 91.111042 V 78.33313 77.777608 77.222086 76.666565 Z m 0.555522,1.111043 v 0.555522 h 0.555522 v -0.555522 z m 0.555522,0.555522 v 0.555522 h 0.555521 v -0.555522 z" /><path
       id="box2-0-3"
       style="stroke-width:0.555556"
       d="m 71.111043,65 v 0.555522 h -0.555522 v 0.555522 0.555521 H 70 v 0.555522 0.555522 h 0.555521 V 68.33313 H 70 v 0.555522 0.555521 0.555522 h 0.555521 v -0.555522 h 0.555522 v 0.555522 h 0.555522 v -0.555522 h 0.555521 v 0.555522 h 0.556039 v -0.555522 h 0.555521 v 0.555522 h 0.555522 0.555522 0.555521 V 69.444173 H 74.44469 V 68.888652 68.33313 67.777609 67.222087 66.666565 66.111044 65.555522 65 h -0.555522 v 0.555522 H 73.333646 72.778125 72.222086 71.666565 V 65 Z m 0,1.111044 h 0.555522 0.555521 0.556039 0.555521 0.555522 v 0.555521 0.555522 0.555522 0.555521 0.555522 H 73.333646 72.778125 72.222086 71.666565 71.111043 V 68.33313 67.777609 67.222087 66.666565 Z m 1.667082,0.555521 v 0.555522 h -0.556039 v 0.555522 h 0.556039 0.555521 v -0.555522 -0.555522 z m -0.556039,1.111044 h -0.555521 v 0.555521 h 0.555521 z" /><path
       id="path11"
       style="stroke-width:0.555556"
       d="m 81.111043,65 v 0.555522 h -0.555522 v 0.555522 H 80 v 0.555521 h 0.555521 v 0.555522 0.555522 0.555521 0.555522 H 80 v 0.555521 0.555522 h 0.555521 0.555522 v -0.555522 h 0.555522 0.555521 0.555522 0.555521 0.555522 0.555522 v 0.555522 h 0.555521 V 69.444173 68.888652 H 84.444173 V 68.33313 67.777609 67.222087 66.666565 h 0.555521 V 66.111044 H 84.444173 V 65.555522 H 83.888651 83.333129 82.777608 82.222086 81.666565 V 65 Z m 3.33313,0.555522 h 0.555521 V 65 h -0.555521 z m -3.33313,0.555522 h 0.555522 0.555521 0.555522 0.555521 0.555522 v 0.555521 0.555522 0.555522 0.555521 0.555522 H 83.333129 82.777608 82.222086 81.666565 81.111043 V 68.33313 67.777609 67.222087 66.666565 Z m 0.555522,0.555521 v 0.555522 0.555522 0.555521 h 0.555521 v -0.555521 -0.555522 -0.555522 z m 1.111043,0 v 0.555522 h 0.555521 v -0.555522 z m 0,1.111044 v 0.555521 h 0.555521 v -0.555521 z" /><path
       id="box2-0-6"
       style="stroke-width:0.555556"
       d="m 91.111042,65 v 0.555522 H 90.55552 v 0.555522 0.555521 h -0.555521 v 0.555522 h 0.555521 v 0.555522 h -0.555521 v 0.555521 0.555522 h 0.555521 v 0.555522 h 0.555522 v 0.555521 h 0.556038 v -0.555521 h 0.555522 0.555522 v 0.555521 h 0.555521 0.555522 0.555522 V 69.444174 H 95.00021 V 68.888652 68.33313 H 94.444689 V 67.777609 H 95.00021 V 67.222087 H 94.444689 V 66.666565 66.111044 65.555522 H 93.889167 93.333645 92.778124 92.222602 91.66708 V 65 Z m 3.333647,0.555522 H 95.00021 V 65 h -0.555521 z m -3.333647,0.555522 h 0.556038 0.555522 0.555522 0.555521 0.555522 v 0.555521 0.555522 0.555522 0.555521 0.555522 H 93.333645 92.778124 92.222602 91.66708 91.111042 V 68.33313 67.777609 67.222087 66.666565 Z m 0.556038,0.555521 v 0.555522 h 0.555522 0.555522 v 0.555522 h 0.555521 v -0.555522 -0.555522 h -0.555521 -0.555522 z" /><path
       id="box2-0-62"
       style="stroke-width:0.555556"
       d="m 61.111044,65 v 0.555522 H 60.555522 60 v 0.555522 0.555521 h 0.555522 v 0.555522 H 60 v 0.555522 0.555521 0.555522 0.556038 h 0.555522 v 0.555522 h 0.555522 V 69.44469 h 0.555521 0.556039 v 0.555522 h 0.555521 0.555522 0.555522 0.555521 0.555522 V 69.44469 H 64.44469 v -0.556038 h 0.555522 V 68.33313 67.777609 H 64.44469 v -0.555522 h 0.555522 V 66.666565 H 64.44469 V 66.111044 65.555522 H 63.889169 63.333647 62.778125 62.222604 61.666565 V 65 Z m 0,1.111044 h 0.555521 0.556039 0.555521 0.555522 0.555522 v 0.555521 0.555522 0.555522 0.555521 0.555522 H 63.333647 62.778125 62.222604 61.666565 61.111044 V 68.33313 67.777609 67.222087 66.666565 Z m 0.555521,0.555521 v 0.555522 0.555522 h 0.556039 v 0.555521 h 0.555521 0.555522 v -0.555521 h -0.555522 v -0.555522 h 0.555522 v -0.555522 h -0.555522 -0.555521 z" /><path
       id="box2-0-8"
       style="stroke-width:0.555556"
       d="m 51.11156,65 v 0.555522 h -0.555521 v 0.555522 H 50 v 0.555521 h 0.556039 v 0.555522 H 50 v 0.555522 h 0.556039 v 0.555521 0.555522 0.555522 0.555521 h 0.555521 v -0.555521 h 0.555522 0.555522 v 0.555521 h 0.555521 v -0.555521 h 0.555522 0.555522 0.555521 V 68.888652 68.33313 h 0.555522 V 67.777609 67.222087 H 54.44469 v -0.555522 h 0.555522 V 66.111044 H 54.44469 V 65.555522 H 53.889169 53.333647 52.778125 52.222604 51.667082 V 65 Z m 0,1.111044 h 0.555522 0.555522 0.555521 0.555522 0.555522 v 0.555521 0.555522 0.555522 0.555521 0.555522 H 53.333647 52.778125 52.222604 51.667082 51.11156 V 68.33313 67.777609 67.222087 66.666565 Z m 0.555522,0.555521 v 0.555522 h 0.555522 v -0.555522 z m 0.555522,0.555522 v 0.555522 h 0.555521 v -0.555522 z m 0.555521,0 h 0.555522 v -0.555522 h -0.555522 z m 0,0.555522 v 0.555521 h 0.555522 v -0.555521 z" /><path
       id="box2-0-79"
       style="stroke-width:0.555556"
       d="m 71.111044,75 v 0.555522 H 70.555522 70 v 0.555521 h 0.555522 v 0.555522 0.555521 0.555522 H 70 v 0.555522 h 0.555522 v 0.555521 H 70 v 0.555522 h 0.555522 v 0.556038 h 0.555522 v -0.556038 h 0.555521 0.555522 0.555522 v 0.556038 h 0.556038 v -0.556038 h 0.555522 0.555521 v 0.556038 h 0.555522 V 79.444173 78.888651 78.33313 77.777608 H 74.44469 v -0.555522 h 0.555522 V 76.666565 76.111043 H 74.44469 V 75.555522 H 73.889169 73.333647 72.777609 72.222087 71.666565 V 75 Z m 3.333646,0.555522 h 0.555522 V 75 H 74.44469 Z m -3.333646,0.555521 h 0.555521 0.555522 0.555522 0.556038 0.555522 v 0.555522 0.555521 0.555522 0.555522 0.555521 H 73.333647 72.777609 72.222087 71.666565 71.111044 V 78.33313 77.777608 77.222086 76.666565 Z m 1.111043,0.555522 v 0.555521 h 0.555522 v -0.555521 z m 0.555522,0.555521 v 0.555522 h 0.556038 v -0.555522 z m 0,0.555522 h -0.555522 -0.555522 v 0.555522 h 0.555522 0.555522 z" /><path
       id="box2-0-0"
       style="stroke-width:0.555556"
       d="M 61.110999 75.000073 L 61.110999 75.555595 L 60.555477 75.555595 L 60.555477 76.111117 L 60.555477 76.666638 L 60.555477 77.22216 L 59.999955 77.22216 L 59.999955 77.777681 L 59.999955 78.333203 L 60.555477 78.333203 L 60.555477 78.888725 L 60.555477 79.444246 L 59.999955 79.444246 L 59.999955 79.999768 L 60.555477 79.999768 L 61.110999 79.999768 L 61.110999 79.444246 L 61.66652 79.444246 L 62.222042 79.444246 L 62.222042 79.999768 L 62.777563 79.999768 L 63.333085 79.999768 L 63.333085 79.444246 L 63.889124 79.444246 L 64.444645 79.444246 L 64.444645 78.888725 L 65.000167 78.888725 L 65.000167 78.333203 L 64.444645 78.333203 L 64.444645 77.777681 L 64.444645 77.22216 L 64.444645 76.666638 L 64.444645 76.111117 L 65.000167 76.111117 L 65.000167 75.555595 L 64.444645 75.555595 L 63.889124 75.555595 L 63.333085 75.555595 L 62.777563 75.555595 L 62.222042 75.555595 L 61.66652 75.555595 L 61.66652 75.000073 L 61.110999 75.000073 z M 61.110999 76.111117 L 61.66652 76.111117 L 62.222042 76.111117 L 62.777563 76.111117 L 63.333085 76.111117 L 63.889124 76.111117 L 63.889124 76.666638 L 63.889124 77.22216 L 63.889124 77.777681 L 63.889124 78.333203 L 63.889124 78.888725 L 63.333085 78.888725 L 62.777563 78.888725 L 62.222042 78.888725 L 61.66652 78.888725 L 61.110999 78.888725 L 61.110999 78.333203 L 61.110999 77.777681 L 61.110999 77.22216 L 61.110999 76.666638 L 61.110999 76.111117 z M 62.222042 76.666638 L 62.222042 77.22216 L 61.66652 77.22216 L 61.66652 77.777681 L 61.66652 78.333203 L 62.222042 78.333203 L 62.222042 77.777681 L 62.777563 77.777681 L 63.333085 77.777681 L 63.333085 77.22216 L 62.777563 77.22216 L 62.777563 76.666638 L 62.222042 76.666638 z " /><path
       id="box2-0-60"
       style="stroke-width:0.555556"
       d="M 51.111092 75.000073 L 51.111092 75.555595 L 50.55557 75.555595 L 50.55557 76.111117 L 50.55557 76.666638 L 50.55557 77.22216 L 50.55557 77.777681 L 50.55557 78.333203 L 50.000049 78.333203 L 50.000049 78.888725 L 50.000049 79.444246 L 50.000049 79.999768 L 50.55557 79.999768 L 50.55557 79.444246 L 51.111092 79.444246 L 51.666614 79.444246 L 52.222135 79.444246 L 52.777657 79.444246 L 53.333179 79.444246 L 53.333179 79.999768 L 53.8887 79.999768 L 53.8887 79.444246 L 54.444222 79.444246 L 54.444222 79.999768 L 54.999744 79.999768 L 54.999744 79.444246 L 54.999744 78.888725 L 54.444222 78.888725 L 54.444222 78.333203 L 54.999744 78.333203 L 54.999744 77.777681 L 54.999744 77.22216 L 54.444222 77.22216 L 54.444222 76.666638 L 54.444222 76.111117 L 54.999744 76.111117 L 54.999744 75.555595 L 54.999744 75.000073 L 54.444222 75.000073 L 54.444222 75.555595 L 53.8887 75.555595 L 53.333179 75.555595 L 52.777657 75.555595 L 52.222135 75.555595 L 51.666614 75.555595 L 51.666614 75.000073 L 51.111092 75.000073 z M 51.111092 76.111117 L 51.666614 76.111117 L 52.222135 76.111117 L 52.777657 76.111117 L 53.333179 76.111117 L 53.8887 76.111117 L 53.8887 76.666638 L 53.8887 77.22216 L 53.8887 77.777681 L 53.8887 78.333203 L 53.8887 78.888725 L 53.333179 78.888725 L 52.777657 78.888725 L 52.222135 78.888725 L 51.666614 78.888725 L 51.111092 78.888725 L 51.111092 78.333203 L 51.111092 77.777681 L 51.111092 77.22216 L 51.111092 76.666638 L 51.111092 76.111117 z M 51.666614 77.22216 L 51.666614 77.777681 L 52.222135 77.777681 L 52.222135 77.22216 L 51.666614 77.22216 z M 52.222135 77.777681 L 52.222135 78.333203 L 52.777657 78.333203 L 53.333179 78.333203 L 53.333179 77.777681 L 52.777657 77.777681 L 52.222135 77.777681 z " /></g></svg>
